<svg width="50" height="50" viewBox="0 0 50 50" fill="none" xmlns="http://www.w3.org/2000/svg">
<g clip-path="url(#clip0)">
<path d="M49.1608 22.7609L41.5831 15.1832V6.4296C41.5831 4.84683 40.3005 3.56413 38.7154 3.56413C37.134 3.56413 35.8513 4.84683 35.8513 6.4296V9.45152L30.2091 3.80908C27.4195 1.02102 22.5694 1.02597 19.7862 3.81413L0.838993 22.7609C-0.279502 23.8816 -0.279502 25.695 0.838993 26.814C1.95799 27.9344 3.77492 27.9344 4.89351 26.814L23.8389 7.86673C24.4561 7.25278 25.5439 7.25278 26.1578 7.86491L45.1064 26.814C45.6683 27.3743 46.4008 27.6529 47.1332 27.6529C47.867 27.6529 48.6008 27.374 49.1609 26.814C50.2798 25.6951 50.2798 23.8817 49.1608 22.7609Z" fill="#464646"/>
<path d="M25.9954 13.3059C25.445 12.7558 24.5537 12.7558 24.0048 13.3059L7.33881 29.967C7.07569 30.23 6.92651 30.5891 6.92651 30.9639V43.1158C6.92651 45.9674 9.23859 48.2794 12.09 48.2794H20.3414V35.5007H29.657V48.2794H37.9085C40.7598 48.2794 43.0719 45.9674 43.0719 43.1159V30.9639C43.0719 30.5891 42.924 30.23 42.6596 29.967L25.9954 13.3059Z" fill="#464646"/>
</g>
<defs>
<clipPath id="clip0">
<rect width="50" height="50" fill="white"/>
</clipPath>
</defs>
</svg>
