<svg width="50" height="50" viewBox="0 0 50 50" fill="none" xmlns="http://www.w3.org/2000/svg">
<g clip-path="url(#clip0)">
<path d="M49.1607 22.7609L41.583 15.1832V6.4296C41.583 4.84683 40.3004 3.56413 38.7153 3.56413C37.1338 3.56413 35.8512 4.84683 35.8512 6.4296V9.45152L30.209 3.80908C27.4194 1.02102 22.5693 1.02597 19.7861 3.81413L0.838871 22.7609C-0.279624 23.8816 -0.279624 25.695 0.838871 26.814C1.95787 27.9344 3.77479 27.9344 4.89339 26.814L23.8388 7.86673C24.4559 7.25278 25.5438 7.25278 26.1577 7.86491L45.1063 26.814C45.6682 27.3743 46.4007 27.6529 47.1331 27.6529C47.8669 27.6529 48.6007 27.374 49.1608 26.814C50.2797 25.6951 50.2797 23.8817 49.1607 22.7609Z" fill="#FF002E"/>
<path d="M25.9954 13.3059C25.445 12.7558 24.5537 12.7558 24.0048 13.3059L7.33881 29.967C7.07569 30.23 6.92651 30.5891 6.92651 30.9639V43.1158C6.92651 45.9674 9.23859 48.2794 12.09 48.2794H20.3414V35.5007H29.657V48.2794H37.9085C40.7598 48.2794 43.0719 45.9674 43.0719 43.1159V30.9639C43.0719 30.5891 42.924 30.23 42.6596 29.967L25.9954 13.3059Z" fill="#FF002E"/>
</g>
<defs>
<clipPath id="clip0">
<rect width="50" height="50" fill="white"/>
</clipPath>
</defs>
</svg>
